<mxfile host="65bd71144e">
    <diagram id="5cnxm9qbW3vXQf4UQHQB" name="Page-1">
        <mxGraphModel dx="776" dy="452" grid="1" gridSize="10" guides="1" tooltips="1" connect="1" arrows="1" fold="1" page="1" pageScale="1" pageWidth="1100" pageHeight="850" math="0" shadow="0">
            <root>
                <mxCell id="0"/>
                <mxCell id="1" parent="0"/>
                <mxCell id="2" value="USER" style="rounded=1;arcSize=10;whiteSpace=wrap;html=1;align=center;fillColor=default;" vertex="1" parent="1">
                    <mxGeometry x="380" y="80" width="100" height="40" as="geometry"/>
                </mxCell>
                <mxCell id="3" value="TASK" style="rounded=1;arcSize=10;whiteSpace=wrap;html=1;align=center;fillColor=default;" vertex="1" parent="1">
                    <mxGeometry x="560" y="190" width="100" height="40" as="geometry"/>
                </mxCell>
                <mxCell id="4" value="creates&lt;br&gt;" style="shape=rhombus;perimeter=rhombusPerimeter;whiteSpace=wrap;html=1;align=center;fillColor=default;" vertex="1" parent="1">
                    <mxGeometry x="370" y="180" width="120" height="60" as="geometry"/>
                </mxCell>
                <mxCell id="7" value="" style="endArrow=none;html=1;rounded=0;exitX=0.5;exitY=1;exitDx=0;exitDy=0;entryX=0.5;entryY=0;entryDx=0;entryDy=0;" edge="1" parent="1" source="2" target="4">
                    <mxGeometry relative="1" as="geometry">
                        <mxPoint x="390" y="190" as="sourcePoint"/>
                        <mxPoint x="550" y="190" as="targetPoint"/>
                    </mxGeometry>
                </mxCell>
                <mxCell id="8" value="" style="endArrow=none;html=1;rounded=0;exitX=0;exitY=0.5;exitDx=0;exitDy=0;entryX=1;entryY=0.5;entryDx=0;entryDy=0;" edge="1" parent="1" source="3" target="4">
                    <mxGeometry relative="1" as="geometry">
                        <mxPoint x="440" y="129.99999999999994" as="sourcePoint"/>
                        <mxPoint x="440" y="190" as="targetPoint"/>
                    </mxGeometry>
                </mxCell>
                <mxCell id="9" value="name" style="ellipse;whiteSpace=wrap;html=1;align=center;fillColor=default;" vertex="1" parent="1">
                    <mxGeometry x="290" y="60" width="40" height="40" as="geometry"/>
                </mxCell>
                <mxCell id="11" value="&lt;font color=&quot;#000000&quot;&gt;email&lt;/font&gt;" style="ellipse;whiteSpace=wrap;html=1;align=center;fillColor=#f9f7ed;strokeColor=#36393d;" vertex="1" parent="1">
                    <mxGeometry x="290" y="100" width="40" height="40" as="geometry"/>
                </mxCell>
                <mxCell id="12" value="password" style="ellipse;whiteSpace=wrap;html=1;align=center;fillColor=default;" vertex="1" parent="1">
                    <mxGeometry x="280" y="140" width="60" height="40" as="geometry"/>
                </mxCell>
                <mxCell id="13" value="" style="endArrow=none;html=1;rounded=0;" edge="1" parent="1" target="2">
                    <mxGeometry relative="1" as="geometry">
                        <mxPoint x="320" y="80" as="sourcePoint"/>
                        <mxPoint x="480" y="80" as="targetPoint"/>
                    </mxGeometry>
                </mxCell>
                <mxCell id="14" value="" style="endArrow=none;html=1;rounded=0;exitX=0.996;exitY=0.376;exitDx=0;exitDy=0;exitPerimeter=0;" edge="1" parent="1" source="11" target="2">
                    <mxGeometry relative="1" as="geometry">
                        <mxPoint x="330" y="89.99999999999994" as="sourcePoint"/>
                        <mxPoint x="380" y="100" as="targetPoint"/>
                    </mxGeometry>
                </mxCell>
                <mxCell id="15" value="" style="endArrow=none;html=1;rounded=0;exitX=1;exitY=0.5;exitDx=0;exitDy=0;entryX=0.049;entryY=1.007;entryDx=0;entryDy=0;entryPerimeter=0;" edge="1" parent="1" source="12" target="2">
                    <mxGeometry relative="1" as="geometry">
                        <mxPoint x="340" y="99.99999999999994" as="sourcePoint"/>
                        <mxPoint x="400" y="110.90909090909093" as="targetPoint"/>
                    </mxGeometry>
                </mxCell>
                <mxCell id="16" value="state" style="ellipse;whiteSpace=wrap;html=1;align=center;fillColor=default;" vertex="1" parent="1">
                    <mxGeometry x="720" y="150" width="100" height="40" as="geometry"/>
                </mxCell>
                <mxCell id="17" value="tittle" style="ellipse;whiteSpace=wrap;html=1;align=center;fillColor=default;" vertex="1" parent="1">
                    <mxGeometry x="720" y="200" width="100" height="40" as="geometry"/>
                </mxCell>
                <mxCell id="18" value="tittle" style="ellipse;whiteSpace=wrap;html=1;align=center;fillColor=default;" vertex="1" parent="1">
                    <mxGeometry x="720" y="100" width="100" height="40" as="geometry"/>
                </mxCell>
                <mxCell id="19" value="due_date" style="ellipse;whiteSpace=wrap;html=1;align=center;fillColor=default;" vertex="1" parent="1">
                    <mxGeometry x="710" y="260" width="100" height="40" as="geometry"/>
                </mxCell>
                <mxCell id="21" value="" style="endArrow=none;html=1;rounded=0;entryX=0;entryY=0.5;entryDx=0;entryDy=0;" edge="1" parent="1" source="3" target="18">
                    <mxGeometry relative="1" as="geometry">
                        <mxPoint x="660" y="140" as="sourcePoint"/>
                        <mxPoint x="820" y="140" as="targetPoint"/>
                        <Array as="points">
                            <mxPoint x="680" y="130"/>
                        </Array>
                    </mxGeometry>
                </mxCell>
                <mxCell id="23" value="" style="endArrow=none;html=1;rounded=0;entryX=0.1;entryY=0.75;entryDx=0;entryDy=0;entryPerimeter=0;" edge="1" parent="1" source="3" target="16">
                    <mxGeometry relative="1" as="geometry">
                        <mxPoint x="660" y="210" as="sourcePoint"/>
                        <mxPoint x="820" y="210" as="targetPoint"/>
                        <Array as="points"/>
                    </mxGeometry>
                </mxCell>
                <mxCell id="24" value="" style="endArrow=none;html=1;rounded=0;exitX=1;exitY=0.75;exitDx=0;exitDy=0;" edge="1" parent="1" source="3" target="17">
                    <mxGeometry relative="1" as="geometry">
                        <mxPoint x="670" y="207.5" as="sourcePoint"/>
                        <mxPoint x="740" y="190" as="targetPoint"/>
                    </mxGeometry>
                </mxCell>
                <mxCell id="25" value="" style="endArrow=none;html=1;rounded=0;exitX=1;exitY=1;exitDx=0;exitDy=0;" edge="1" parent="1" source="3" target="19">
                    <mxGeometry relative="1" as="geometry">
                        <mxPoint x="670" y="230" as="sourcePoint"/>
                        <mxPoint x="730" y="230" as="targetPoint"/>
                        <Array as="points">
                            <mxPoint x="680" y="280"/>
                        </Array>
                    </mxGeometry>
                </mxCell>
                <mxCell id="26" value="&lt;font color=&quot;#000000&quot;&gt;id&lt;/font&gt;" style="ellipse;whiteSpace=wrap;html=1;align=center;fillColor=#f9f7ed;strokeColor=#36393d;" vertex="1" parent="1">
                    <mxGeometry x="720" y="40" width="100" height="40" as="geometry"/>
                </mxCell>
                <mxCell id="27" value="" style="endArrow=none;html=1;rounded=0;" edge="1" parent="1" target="26" source="3">
                    <mxGeometry relative="1" as="geometry">
                        <mxPoint x="670" y="20" as="sourcePoint"/>
                        <mxPoint x="740" y="20" as="targetPoint"/>
                        <Array as="points">
                            <mxPoint x="690" y="70"/>
                        </Array>
                    </mxGeometry>
                </mxCell>
                <mxCell id="28" value="&lt;font color=&quot;#ffffff&quot;&gt;(0, n)&lt;/font&gt;" style="text;html=1;align=center;verticalAlign=middle;resizable=0;points=[];autosize=1;strokeColor=none;fillColor=none;fontColor=#000000;" vertex="1" parent="1">
                    <mxGeometry x="430" y="130" width="50" height="30" as="geometry"/>
                </mxCell>
                <mxCell id="29" value="&lt;font color=&quot;#ffffff&quot;&gt;(1, 1)&lt;/font&gt;" style="text;html=1;align=center;verticalAlign=middle;resizable=0;points=[];autosize=1;strokeColor=none;fillColor=none;fontColor=#000000;" vertex="1" parent="1">
                    <mxGeometry x="500" y="180" width="50" height="30" as="geometry"/>
                </mxCell>
                <mxCell id="30" value="&lt;font color=&quot;#ffff99&quot;&gt;IMPORTANT:&amp;nbsp;&lt;br&gt;Min-Max / ISO format&lt;/font&gt;" style="text;html=1;align=center;verticalAlign=middle;resizable=0;points=[];autosize=1;strokeColor=none;fillColor=none;fontColor=#FFFFFF;" vertex="1" parent="1">
                    <mxGeometry x="470" y="125" width="140" height="40" as="geometry"/>
                </mxCell>
            </root>
        </mxGraphModel>
    </diagram>
</mxfile>
